<?xml version="1.0" encoding="utf-8"?>
<!-- Generator: Adobe Illustrator 24.0.2, SVG Export Plug-In . SVG Version: 6.00 Build 0)  -->
<svg version="1.1" xmlns="http://www.w3.org/2000/svg" xmlns:xlink="http://www.w3.org/1999/xlink" x="0px" y="0px"
	 viewBox="0 0 24 24" style="enable-background:new 0 0 24 24;" xml:space="preserve">
<style type="text/css">
	.st0{fill:none;}
	.st1{fill:#121331;}
</style>
<g id="bounding_box">
	<rect class="st0" width="24" height="24"/>
</g>
<g id="design">
	<g>
		<g>
			<path class="st1" d="M21,11.78c0.06,2.41-0.83,4.69-2.48,6.43c-1.66,1.74-3.9,2.73-6.3,2.79h-0.23c-2.32,0-4.51-0.88-6.2-2.48
				c-1.37-1.31-2.28-2.98-2.63-4.83c-0.08-0.4,0.19-0.8,0.6-0.87c0.4-0.08,0.8,0.19,0.87,0.59c0.3,1.54,1.06,2.93,2.2,4.02
				c1.45,1.38,3.37,2.1,5.35,2.07c2-0.05,3.87-0.88,5.25-2.33s2.12-3.35,2.07-5.35s-0.88-3.87-2.33-5.25s-3.38-2.12-5.35-2.07
				c-2,0.05-3.87,0.88-5.25,2.33C6.22,7.19,5.92,7.58,5.66,8h2.36c0.42,0,0.75,0.34,0.75,0.75c0,0.41-0.33,0.75-0.75,0.75H3.75
				C3.34,9.5,3,9.16,3,8.75V4.23c0-0.42,0.34-0.75,0.75-0.75S4.5,3.81,4.5,4.23v2.8c0.29-0.44,0.62-0.86,0.98-1.24
				c1.66-1.74,3.9-2.73,6.3-2.79c2.44-0.05,4.69,0.83,6.43,2.48C19.95,7.14,20.94,9.38,21,11.78z"/>
		</g>
		<g>
			<path class="st1" d="M15.41,16.27c-0.14,0.15-0.34,0.23-0.53,0.23s-0.38-0.07-0.53-0.21l-2.87-2.81
				c-0.08-0.07-0.13-0.16-0.17-0.25c-0.04-0.09-0.06-0.19-0.06-0.29V8.75C11.25,8.34,11.59,8,12,8s0.75,0.34,0.75,0.75v3.88
				l2.65,2.58C15.7,15.5,15.7,15.98,15.41,16.27z"/>
		</g>
	</g>
</g>
</svg>
